<?xml version="1.0" standalone="no"?>
<!DOCTYPE svg PUBLIC "-//W3C//DTD SVG 20010904//EN"
 "http://www.w3.org/TR/2001/REC-SVG-20010904/DTD/svg10.dtd">
<svg version="1.0" xmlns="http://www.w3.org/2000/svg"
 width="600.000000pt" height="600.000000pt" viewBox="0 0 600.000000 600.000000"
 preserveAspectRatio="xMidYMid meet">
<g transform="translate(0.000000,600.000000) scale(0.100000,-0.100000)"
fill="#000000" stroke="none">
<path d="M2964 5003 c-15 -20 -57 -70 -92 -111 -54 -62 -62 -76 -51 -86 8 -7
55 -46 104 -87 201 -164 522 -499 706 -736 251 -321 455 -663 554 -928 180
-482 98 -953 -225 -1298 -230 -246 -572 -389 -930 -390 -420 0 -798 182 -1033
497 -72 98 -148 252 -182 371 -73 254 -56 531 49 804 101 262 342 651 593 956
79 97 158 192 175 211 18 20 18 21 -29 55 -27 19 -74 51 -105 71 l-57 37 -93
-122 c-52 -67 -102 -133 -111 -147 -10 -14 -31 -43 -48 -65 -89 -119 -220
-325 -214 -336 5 -7 4 -10 -3 -5 -14 9 -133 -192 -217 -366 -130 -273 -185
-490 -186 -742 -2 -617 390 -1160 976 -1355 176 -58 250 -72 435 -78 139 -4
184 -2 285 15 603 103 1025 504 1161 1102 24 104 29 375 11 501 -84 555 -502
1246 -1256 2074 -95 105 -177 191 -181 193 -4 1 -20 -14 -36 -35z m56 -35 c0
-10 3 -9 10 2 7 12 10 12 10 1 0 -7 11 -22 25 -33 25 -20 35 -45 13 -32 -9 5
-8 2 1 -9 11 -14 16 -15 29 -5 11 9 14 9 9 1 -4 -6 1 -18 13 -26 31 -22 93
-105 86 -116 -7 -10 10 -24 32 -27 6 -1 10 3 7 9 -3 7 0 4 7 -7 31 -44 68 -88
68 -80 0 4 11 -7 25 -26 13 -18 22 -37 19 -42 -3 -5 -1 -7 3 -6 5 2 24 -12 42
-30 25 -25 30 -36 22 -46 -8 -9 -7 -13 4 -13 8 0 12 5 9 11 -3 6 10 -6 30 -27
19 -21 38 -48 42 -60 8 -24 35 -48 46 -41 4 3 5 -1 3 -8 -3 -8 6 -24 20 -36
28 -24 31 -41 13 -61 -7 -8 0 -5 16 5 l29 18 -12 -22 c-9 -18 -9 -21 3 -16 14
5 43 -32 38 -49 -1 -5 2 -6 8 -2 5 3 10 1 10 -5 0 -6 5 -8 12 -4 7 4 8 3 4 -4
-4 -7 3 -22 15 -34 36 -39 51 -67 45 -84 -5 -14 -4 -15 8 -5 11 9 15 8 22 -6
4 -10 8 -25 8 -33 1 -8 8 -15 16 -15 10 0 14 -9 13 -25 -1 -14 1 -19 3 -12 3
6 10 10 15 6 5 -3 5 -12 0 -23 -7 -13 -6 -18 4 -18 8 0 12 5 9 11 -3 6 2 2 10
-9 9 -11 23 -28 32 -38 8 -11 13 -21 11 -24 -3 -2 3 -13 14 -24 10 -10 19 -26
19 -35 0 -9 5 -12 12 -8 7 5 9 2 5 -9 -3 -8 1 -21 10 -28 13 -11 43 -58 89
-140 6 -10 13 -18 15 -16 2 1 1 -2 -3 -7 -9 -12 33 -67 46 -59 6 3 8 3 4 -2
-4 -4 2 -25 13 -47 11 -21 17 -44 13 -50 -4 -6 -3 -8 3 -5 6 4 17 -8 24 -26 7
-17 22 -48 34 -67 31 -53 57 -112 45 -105 -6 4 3 -22 21 -57 18 -34 36 -71 41
-81 5 -10 6 -22 3 -26 -3 -5 2 -22 10 -37 8 -16 15 -37 15 -47 0 -10 7 -34 15
-54 27 -63 40 -147 40 -250 0 -45 3 -75 7 -65 5 9 6 -35 3 -98 -3 -63 -5 -124
-5 -135 0 -42 -22 -155 -31 -161 -5 -3 -7 -9 -4 -14 3 -5 0 -20 -7 -32 -7 -13
-11 -28 -10 -35 1 -6 -2 -14 -8 -18 -5 -3 -10 -20 -10 -36 0 -17 -4 -28 -9
-25 -5 3 -11 -3 -14 -14 -3 -11 -1 -18 4 -14 12 7 11 1 -4 -30 -8 -14 -17 -23
-20 -19 -4 3 -7 -7 -8 -23 0 -25 -2 -26 -9 -9 -7 16 -9 13 -9 -17 -1 -20 -6
-40 -11 -43 -6 -4 -7 -11 -4 -17 4 -6 2 -8 -3 -5 -10 6 -29 -37 -25 -56 1 -4
-4 -6 -10 -5 -7 2 -12 -5 -12 -14 1 -10 -1 -16 -5 -14 -3 2 -12 -2 -19 -10 -7
-8 -10 -14 -7 -14 3 0 1 -6 -5 -12 -6 -7 -23 -30 -39 -51 -17 -21 -33 -38 -37
-37 -4 0 -9 -7 -10 -16 -1 -9 -15 -29 -30 -45 -28 -29 -51 -39 -38 -16 4 7 3
8 -2 4 -5 -5 -9 -16 -9 -25 0 -20 -153 -144 -168 -135 -6 3 -7 1 -3 -5 4 -7 1
-12 -9 -12 -9 0 -14 -4 -10 -9 9 -16 -35 -24 -53 -9 -15 11 -16 11 -4 -3 11
-15 6 -21 -43 -48 -31 -18 -61 -29 -67 -25 -7 4 -8 3 -4 -4 4 -7 5 -12 3 -12
-2 0 -41 -14 -87 -30 -46 -17 -86 -28 -88 -25 -3 3 -13 -2 -23 -11 -9 -8 -27
-16 -40 -18 -13 -2 -42 -8 -64 -13 -94 -24 -180 -35 -314 -38 -94 -3 -140 -1
-136 6 4 6 -11 9 -42 8 -81 -2 -167 15 -277 55 -36 13 -63 19 -60 15 3 -5 -2
-6 -10 -3 -9 3 -16 10 -16 14 0 5 -13 11 -30 15 -39 9 -113 45 -106 52 3 3 14
0 23 -8 16 -13 17 -12 4 4 -9 11 -21 15 -34 11 -15 -5 -17 -3 -11 7 6 12 5 12
-9 0 -9 -7 -17 -9 -17 -5 0 5 -22 20 -50 33 -27 13 -47 27 -45 31 3 4 -2 11
-11 14 -10 4 -13 2 -8 -7 4 -6 -7 3 -24 21 -30 31 -50 43 -37 22 10 -16 -1
-11 -16 7 -12 14 -12 16 1 9 8 -4 6 -1 -5 8 -11 8 -27 21 -35 28 -8 7 -18 13
-21 13 -4 0 -11 4 -16 9 -5 5 -3 6 5 2 6 -4 12 -4 12 -1 0 3 -13 11 -30 16
-16 6 -27 15 -24 20 3 5 0 9 -6 9 -6 0 -8 5 -4 12 4 6 3 9 -2 5 -5 -3 -32 18
-59 46 -28 28 -38 40 -23 27 16 -13 28 -19 28 -14 0 5 -18 22 -40 38 -21 16
-37 32 -35 36 2 3 -6 17 -18 31 -24 26 -54 70 -75 109 -7 14 -27 50 -45 80
-24 42 -26 52 -11 40 16 -12 15 -10 -3 10 -24 28 -63 124 -63 157 0 12 -5 23
-11 25 -6 2 -12 20 -13 40 0 20 -4 34 -8 31 -5 -2 -8 4 -9 14 0 10 -2 27 -4
38 -29 154 -33 395 -9 500 9 39 15 79 15 89 0 10 6 28 14 39 9 12 12 31 8 45
-4 16 -2 23 4 19 6 -4 13 2 16 13 3 11 0 20 -6 20 -8 0 -8 3 -2 8 11 7 15 21
23 64 2 16 9 25 15 21 6 -3 7 -1 3 5 -3 6 9 43 28 83 19 40 33 76 30 81 -3 4
-1 8 3 8 9 0 37 60 34 74 -1 5 5 6 12 3 10 -4 15 2 15 17 0 22 46 105 65 117
5 4 6 13 2 20 -6 9 -4 11 7 6 11 -4 14 -1 11 11 -2 10 5 27 16 38 11 12 17 25
13 29 -4 4 1 13 11 20 10 7 19 17 20 22 1 4 6 7 10 5 5 -1 6 2 3 7 -3 5 1 14
9 21 8 7 15 18 15 24 0 7 11 28 25 47 14 19 31 43 39 54 8 11 16 25 16 30 2
18 32 45 43 38 6 -3 7 -1 3 6 -4 6 0 18 8 27 9 9 13 20 10 26 -4 7 -2 8 4 4 7
-4 12 -1 12 8 0 9 4 16 9 16 5 0 21 19 34 43 35 57 72 98 82 89 5 -4 5 -1 1 6
-9 15 12 44 25 36 5 -3 8 0 7 8 -2 7 3 12 11 10 12 -3 12 -1 0 14 -9 12 -9 15
-1 10 7 -4 12 -1 12 9 0 10 5 13 12 9 7 -4 8 -3 4 5 -10 15 13 43 30 37 7 -3
11 0 9 7 -3 7 9 27 25 45 26 27 33 31 50 22 11 -6 17 -16 14 -22 -4 -7 -3 -8
4 -4 17 10 108 -45 95 -58 -3 -3 1 -6 10 -6 10 0 17 -3 17 -6 0 -15 -35 -64
-46 -64 -16 0 -65 -66 -56 -75 4 -5 2 -5 -4 -2 -6 3 -17 -6 -25 -21 -7 -15
-28 -42 -46 -60 -19 -18 -30 -38 -27 -44 4 -6 3 -9 -2 -6 -5 3 -17 -3 -26 -14
-10 -10 -15 -18 -12 -18 4 0 1 -7 -6 -15 -7 -8 -16 -12 -21 -9 -5 3 -6 -1 -4
-8 3 -8 -6 -25 -19 -37 -14 -13 -23 -27 -21 -32 3 -4 0 -11 -6 -15 -8 -5 -10
-2 -5 7 4 8 -1 3 -12 -11 -11 -13 -18 -28 -16 -32 3 -4 0 -8 -5 -8 -6 0 -11
-5 -11 -10 0 -18 -57 -90 -65 -82 -5 4 -6 0 -3 -9 4 -9 -5 -28 -22 -46 -26
-27 -60 -83 -61 -100 0 -5 -6 -15 -14 -23 -7 -8 -20 -30 -30 -48 -9 -19 -19
-31 -23 -28 -3 4 0 12 6 18 7 7 12 21 11 33 -1 17 -2 16 -8 -5 -4 -14 -13 -24
-20 -22 -9 2 -9 -3 -1 -19 10 -17 8 -25 -9 -43 -12 -12 -21 -29 -21 -38 0 -8
-9 -23 -20 -33 -12 -10 -18 -25 -16 -32 3 -7 2 -13 -2 -13 -4 0 -19 -25 -32
-55 -13 -30 -28 -55 -33 -55 -4 0 -5 -4 -2 -10 3 -5 -2 -21 -11 -35 -9 -14
-13 -25 -9 -25 4 0 2 -7 -5 -15 -7 -8 -9 -15 -4 -15 5 0 4 -4 -1 -8 -14 -10
-45 -102 -45 -133 0 -14 -4 -29 -10 -35 -20 -20 -33 -144 -33 -309 0 -196 5
-295 14 -289 8 5 20 -31 24 -76 2 -19 8 -36 14 -38 6 -2 11 -7 11 -12 0 -10
90 -195 124 -255 13 -23 28 -39 37 -37 8 2 11 0 7 -4 -4 -3 2 -18 12 -32 22
-27 26 -47 8 -36 -7 4 -8 3 -4 -5 6 -9 11 -9 22 0 9 7 14 8 12 3 -2 -5 0 -9 4
-9 11 0 49 -54 51 -73 1 -12 7 -18 17 -15 15 4 58 -33 59 -52 1 -5 4 -10 9
-10 17 0 100 -60 95 -69 -4 -5 2 -7 13 -3 18 7 18 7 0 -8 -23 -18 -14 -20 16
-4 16 9 19 8 13 -2 -6 -9 -3 -11 9 -6 10 4 15 3 11 -3 -3 -6 -1 -10 5 -10 6 0
40 -18 76 -40 35 -21 62 -36 60 -31 -3 4 1 8 9 8 8 0 12 -4 9 -8 -4 -7 47 -23
62 -19 4 1 10 -4 15 -12 4 -7 14 -13 21 -14 7 0 26 -2 41 -2 16 -1 25 -6 22
-12 -3 -6 1 -7 10 -4 8 4 28 1 44 -6 31 -12 32 -13 166 -29 122 -15 211 -14
341 4 121 16 153 23 171 37 7 5 16 7 21 4 5 -3 18 1 28 9 10 8 34 15 52 15 17
0 32 4 32 9 0 10 38 24 58 22 6 -1 12 2 12 7 0 6 11 13 25 16 15 4 23 11 19
17 -4 8 0 8 14 0 11 -6 23 -16 25 -23 4 -9 6 -10 6 -1 1 6 -4 15 -10 19 -13 7
72 64 96 64 8 0 14 5 12 11 -3 15 61 51 76 42 7 -4 5 2 -3 12 -9 11 -10 16 -2
11 7 -4 12 -2 12 5 0 8 4 8 15 -1 13 -11 14 -10 9 5 -6 14 -4 16 6 10 10 -6
12 -4 6 11 -4 10 -4 15 0 12 3 -4 13 0 21 8 8 8 19 11 25 8 6 -4 8 -2 5 3 -4
6 1 17 10 24 14 12 16 12 8 0 -5 -9 -4 -12 3 -7 6 4 8 14 5 23 -5 13 -2 15 11
10 9 -4 15 -3 11 2 -3 5 -1 12 5 16 6 4 8 10 5 15 -3 5 0 12 6 16 8 5 10 2 4
-7 -4 -8 4 0 19 16 14 17 26 39 26 50 0 15 2 17 9 6 7 -10 12 -11 27 -1 16 10
16 11 2 6 -20 -6 -21 -5 -12 18 3 9 10 13 15 10 5 -3 6 1 4 9 -7 16 29 60 40
49 5 -4 5 -2 1 5 -8 15 22 65 35 57 5 -3 6 2 3 10 -3 8 1 28 9 43 26 49 44 97
57 150 8 29 17 50 22 47 5 -3 8 12 7 33 -2 21 0 43 3 49 26 41 28 380 4 439
-15 35 -15 36 1 24 15 -13 15 -12 5 8 -7 12 -12 31 -12 43 0 12 -4 19 -9 15
-6 -3 -9 3 -9 12 0 10 -7 45 -17 78 -10 33 -18 72 -19 86 -1 18 -5 25 -15 21
-8 -3 -12 -1 -8 4 3 6 -5 33 -18 60 -14 27 -25 57 -25 67 0 10 -4 16 -8 13 -4
-2 -9 7 -10 22 -1 15 -7 29 -12 30 -6 2 -8 8 -4 13 3 5 1 9 -5 9 -5 0 -24 28
-41 62 -27 53 -30 65 -20 83 l13 20 -23 -20 c-13 -11 -20 -14 -16 -7 4 6 2 12
-4 12 -6 0 -9 3 -6 8 2 4 -9 27 -26 52 -17 25 -24 39 -15 32 13 -11 15 -10 10
7 -3 12 -11 17 -19 14 -12 -5 -19 7 -15 30 0 4 -4 6 -11 5 -7 -2 -13 2 -13 7
-3 25 -29 64 -39 58 -6 -3 -8 -3 -4 2 4 4 3 14 -4 22 -8 10 -8 13 3 10 8 -2
11 -2 6 0 -4 3 -5 8 -2 13 3 4 -4 6 -15 3 -18 -5 -20 -2 -15 33 3 30 2 35 -6
21 -6 -9 -7 -22 -4 -27 3 -6 3 -10 0 -10 -3 0 -11 14 -16 30 -6 17 -16 30 -21
30 -6 0 -5 6 2 15 11 13 10 14 -6 8 -17 -6 -18 -5 -4 12 14 17 14 18 -10 5
-14 -7 -22 -9 -18 -5 5 5 -4 23 -18 42 -22 29 -24 36 -12 51 12 16 11 16 -6 2
-18 -14 -19 -13 -12 5 6 16 5 17 -5 8 -9 -9 -16 -4 -31 23 -10 20 -33 51 -51
71 -18 20 -31 40 -29 45 1 5 -1 7 -5 5 -5 -2 -17 5 -28 16 -11 11 -14 17 -7
13 6 -4 12 -3 12 2 0 10 -29 26 -42 24 -4 -1 -5 4 -2 12 3 8 0 17 -7 22 -8 5
-10 3 -4 -6 5 -9 4 -11 -3 -6 -7 4 -12 14 -12 21 0 8 -9 19 -20 25 -11 6 -20
17 -20 24 0 8 -8 20 -17 27 -17 13 -17 13 -3 -6 14 -19 14 -19 -2 -6 -10 7
-18 19 -18 26 0 7 -10 19 -22 27 -21 14 -21 17 -8 34 14 17 13 18 -1 7 -13
-11 -20 -8 -42 15 -15 16 -24 32 -20 37 5 4 3 5 -3 2 -14 -8 -85 67 -80 85 1
7 1 10 -2 5 -5 -9 -82 51 -82 64 0 6 6 7 13 3 9 -6 8 -3 -1 8 -8 9 -19 15 -25
13 -14 -5 -143 114 -139 128 1 5 -2 6 -7 2 -6 -3 -15 4 -21 15 -6 11 -19 20
-29 20 -10 0 -25 8 -32 18 -13 16 -13 16 6 2 19 -14 19 -14 6 3 -7 9 -19 17
-27 17 -16 0 -36 34 -26 45 4 5 1 5 -6 1 -8 -5 -21 0 -32 12 -16 16 -17 22 -6
31 7 6 17 7 21 3 5 -4 5 -2 2 4 -4 7 13 33 37 60 25 26 42 52 40 56 -3 4 2 8
10 8 8 0 18 9 21 20 6 17 8 18 21 6 8 -8 14 -21 14 -28z m220 -228 c0 -5 -2
-10 -4 -10 -3 0 -8 5 -11 10 -3 6 -1 10 4 10 6 0 11 -4 11 -10z"/>
<path d="M2933 4913 c4 -3 1 -13 -6 -22 -11 -14 -10 -14 5 -2 16 12 16 31 1
31 -4 0 -3 -3 0 -7z"/>
<path d="M3140 4842 c0 -6 5 -14 10 -17 6 -4 7 -11 4 -17 -4 -7 -2 -8 5 -4 9
6 9 12 -1 24 -7 10 -14 19 -15 21 -2 2 -3 -1 -3 -7z"/>
<path d="M3470 4463 c0 -5 10 -18 23 -29 l22 -19 -20 25 c-11 14 -21 27 -22
29 -2 2 -3 0 -3 -6z"/>
<path d="M2375 4170 c-3 -5 -1 -10 4 -10 6 0 11 5 11 10 0 6 -2 10 -4 10 -3 0
-8 -4 -11 -10z"/>
<path d="M3769 4027 c6 -8 9 -16 6 -19 -3 -2 2 -5 10 -5 13 0 13 3 -2 19 -19
21 -31 25 -14 5z"/>
<path d="M2056 3773 c-6 -14 -5 -15 5 -6 7 7 10 15 7 18 -3 3 -9 -2 -12 -12z"/>
<path d="M3885 3749 c-11 -16 -1 -19 13 -3 7 8 8 14 3 14 -5 0 -13 -5 -16 -11z"/>
<path d="M1771 2924 c0 -11 3 -14 6 -6 3 7 2 16 -1 19 -3 4 -6 -2 -5 -13z"/>
<path d="M4412 2480 c0 -14 2 -19 5 -12 2 6 2 18 0 25 -3 6 -5 1 -5 -13z"/>
<path d="M2144 1512 c-9 -5 -8 -10 1 -19 11 -10 13 -9 12 7 -1 11 -1 20 -2 20
0 0 -5 -4 -11 -8z"/>
<path d="M3458 1403 c7 -3 16 -2 19 1 4 3 -2 6 -13 5 -11 0 -14 -3 -6 -6z"/>
<path d="M2629 4600 c-41 -50 -75 -94 -76 -98 -2 -4 14 -18 35 -32 238 -158
614 -501 825 -753 394 -473 559 -804 558 -1127 0 -348 -183 -634 -504 -785
-172 -82 -350 -113 -531 -95 -460 47 -790 360 -837 795 -14 130 1 251 50 402
56 171 209 451 369 673 120 167 244 320 259 320 28 0 73 31 88 60 41 80 -4
166 -93 176 -65 8 -124 -44 -126 -111 -1 -29 -17 -54 -87 -138 -330 -397 -537
-744 -614 -1028 -137 -510 85 -1014 550 -1246 345 -173 746 -173 1088 -2 228
115 425 333 518 573 81 209 92 459 29 686 -72 266 -210 521 -469 869 -238 321
-493 585 -821 850 -68 56 -127 101 -131 101 -3 0 -39 -41 -80 -90z m147 8 c17
-16 34 -25 38 -21 4 5 6 3 4 -3 -1 -7 1 -12 5 -12 5 -1 17 -10 26 -21 10 -12
21 -21 24 -21 3 0 17 -10 31 -22 43 -40 60 -53 68 -51 8 3 12 -13 9 -30 -1 -5
4 -5 10 -1 8 5 46 -28 103 -87 50 -52 82 -83 71 -69 -11 14 -6 12 10 -6 17
-18 38 -43 48 -56 10 -12 15 -16 11 -8 -5 8 7 0 25 -17 19 -19 29 -38 25 -44
-4 -7 -3 -9 3 -6 14 9 95 -84 89 -100 -3 -7 1 -10 9 -6 8 3 18 -2 21 -11 3 -9
10 -13 15 -10 5 3 9 1 9 -4 0 -5 16 -27 35 -48 54 -61 55 -63 55 -74 0 -5 5
-10 11 -10 6 0 8 -9 4 -22 -5 -18 -4 -20 4 -8 9 12 11 10 12 -10 0 -14 3 -19
6 -12 6 16 33 -3 33 -24 0 -8 9 -19 19 -26 11 -6 17 -18 13 -26 -3 -10 -1 -13
6 -8 7 4 12 2 12 -4 0 -6 4 -8 10 -5 6 4 7 -1 3 -11 -4 -12 -3 -15 5 -10 8 4
16 -3 22 -20 6 -15 18 -34 28 -41 11 -10 12 -12 2 -7 -8 4 2 -11 24 -34 24
-25 35 -45 31 -53 -5 -7 -4 -10 3 -5 6 3 15 -8 22 -29 6 -19 16 -33 21 -29 5
3 8 2 7 -3 -2 -4 9 -24 25 -44 15 -20 27 -38 27 -41 0 -4 16 -34 35 -67 19
-34 30 -59 25 -56 -6 3 -7 -1 -4 -9 3 -9 10 -14 14 -11 8 5 20 -19 20 -38 -1
-4 5 -14 12 -22 31 -34 36 -43 31 -49 -4 -3 2 -15 12 -26 10 -11 18 -28 19
-37 1 -10 10 -35 19 -57 9 -21 17 -44 17 -50 0 -6 7 -20 15 -30 8 -11 15 -25
15 -30 0 -6 -4 -5 -9 3 -7 10 -9 7 -8 -11 2 -17 6 -24 16 -20 11 4 13 -4 9
-43 -3 -26 -2 -42 2 -35 5 7 10 -2 14 -24 4 -20 4 -41 0 -47 -4 -6 -2 -14 5
-18 23 -14 17 -363 -7 -381 -8 -5 -12 -21 -17 -60 -2 -14 -8 -24 -16 -22 -10
2 -10 0 0 -12 6 -8 8 -17 3 -19 -4 -3 -14 -29 -22 -56 -9 -33 -17 -47 -22 -39
-5 9 -8 4 -8 -14 0 -15 -7 -34 -16 -42 -8 -9 -12 -22 -8 -28 4 -7 4 -10 -1 -6
-4 4 -14 -3 -22 -17 -7 -14 -20 -37 -28 -52 -8 -16 -15 -22 -15 -15 0 7 -5 10
-10 7 -6 -4 -8 -11 -4 -16 3 -6 -6 -22 -20 -36 -14 -14 -23 -30 -19 -36 3 -5
1 -7 -5 -3 -5 3 -12 1 -14 -6 -7 -21 -29 3 -23 25 5 20 5 20 -5 4 -9 -14 -8
-22 2 -34 10 -13 10 -17 0 -20 -6 -3 -10 -9 -6 -14 3 -5 -1 -9 -8 -9 -15 -1
-68 -45 -68 -57 0 -5 -13 -16 -28 -25 -23 -14 -32 -15 -42 -5 -7 7 -10 7 -7 1
3 -5 -5 -23 -19 -39 -13 -15 -24 -25 -24 -21 0 4 -12 -1 -27 -12 -16 -10 -41
-17 -57 -16 -27 3 -27 2 -10 -12 18 -15 18 -15 -3 -11 -12 3 -24 -1 -27 -8 -6
-16 -74 -37 -89 -28 -6 3 -7 1 -3 -5 4 -7 0 -13 -11 -14 -28 -2 -36 -4 -67
-17 -16 -6 -35 -10 -43 -7 -7 3 -13 2 -13 -3 0 -27 -308 -43 -425 -22 -165 30
-209 42 -300 82 -16 7 -37 14 -47 15 -22 2 -69 40 -60 48 3 4 -2 4 -11 0 -12
-4 -26 1 -41 15 -12 12 -25 19 -28 16 -3 -3 -11 2 -19 12 -12 14 -12 16 0 8
10 -5 12 -4 7 3 -4 7 -14 12 -22 12 -8 0 -14 5 -14 10 0 6 -7 10 -15 10 -8 0
-15 5 -15 11 0 5 -4 8 -9 5 -4 -3 -21 6 -37 19 -16 14 -24 25 -19 25 6 0 2 5
-8 11 -9 6 -15 14 -12 20 3 5 -1 6 -9 3 -15 -6 -21 6 -17 29 1 5 -3 6 -7 3 -5
-3 -18 4 -28 17 -19 21 -19 21 1 7 20 -14 20 -14 1 7 -10 13 -23 20 -29 16 -5
-3 -7 -1 -4 4 4 6 0 16 -8 23 -8 7 -15 18 -15 24 0 7 4 6 9 -2 7 -11 9 -11 14
1 4 10 0 14 -11 12 -20 -3 -65 44 -58 61 3 7 -1 14 -7 17 -23 9 -82 149 -73
172 3 9 2 14 -3 11 -12 -8 -31 65 -25 94 4 18 3 21 -4 11 -15 -21 -26 142 -19
288 3 68 10 127 15 130 5 3 9 20 10 38 0 17 6 41 12 52 6 12 9 21 6 21 -7 0
24 102 38 125 7 11 18 37 25 58 7 20 17 37 22 37 5 0 8 3 7 8 -3 14 34 92 44
92 6 0 7 7 4 16 -6 15 -4 15 11 3 10 -9 14 -9 10 -2 -5 7 -1 26 8 43 8 16 16
33 16 37 1 11 112 177 122 181 7 4 41 61 42 72 1 14 45 61 53 57 4 -3 9 4 9
15 1 11 9 28 17 37 9 10 16 21 16 25 0 4 21 29 47 56 46 48 48 49 68 32 l20
-17 -20 23 -20 24 23 19 c14 11 21 23 16 31 -4 7 -4 10 1 6 5 -5 13 2 20 15 6
12 17 21 23 20 7 -2 9 4 5 14 -4 11 -3 14 5 9 7 -4 12 -1 12 7 0 18 34 49 44
40 4 -4 4 0 1 8 -4 11 1 18 14 22 13 3 21 0 21 -8 0 -7 7 -16 16 -19 8 -3 13
-10 10 -15 -3 -5 1 -11 8 -14 8 -3 17 -1 20 6 3 9 8 8 15 -3 7 -9 11 -10 11
-3 0 6 9 15 20 18 11 3 23 17 26 31 3 13 11 21 16 18 6 -4 5 2 -1 14 -6 11 -8
28 -4 38 4 12 3 15 -5 10 -7 -4 -15 -1 -18 8 -9 24 -74 33 -86 12 -5 -9 -15
-13 -21 -10 -7 4 -9 4 -5 -1 4 -4 0 -14 -8 -22 -8 -9 -12 -23 -9 -34 4 -10 2
-19 -3 -19 -18 0 -19 22 -3 57 8 18 21 33 29 33 7 0 11 4 8 9 -3 5 20 8 52 8
31 -1 55 -5 52 -9 -3 -4 4 -13 14 -21 12 -9 17 -20 13 -31 -4 -9 -2 -16 3 -16
18 0 10 -33 -16 -67 -14 -18 -30 -31 -35 -28 -5 4 -9 1 -9 -4 0 -6 -9 -11 -19
-11 -12 0 -40 -23 -67 -55 -26 -30 -52 -51 -57 -48 -6 3 -7 1 -3 -6 5 -7 -6
-30 -26 -56 -18 -24 -46 -62 -61 -85 -16 -22 -33 -37 -39 -34 -7 5 -8 2 -4 -5
5 -7 0 -19 -10 -27 -11 -9 -13 -13 -7 -9 9 4 11 1 7 -10 -4 -9 -9 -14 -12 -11
-5 5 -42 -37 -42 -48 0 -10 -70 -108 -98 -138 -14 -15 -22 -31 -19 -35 4 -3 7
0 7 7 0 7 3 10 6 7 7 -7 -44 -89 -58 -95 -5 -2 -8 -10 -8 -17 0 -8 -7 -21 -16
-29 -8 -9 -13 -16 -10 -16 8 0 -46 -104 -56 -108 -4 -2 -8 -13 -8 -23 0 -13
-4 -18 -12 -13 -6 4 -8 3 -5 -2 6 -11 -46 -167 -54 -160 -5 5 -8 -18 -10 -61
-1 -13 -5 -20 -10 -17 -5 3 -8 -3 -7 -13 2 -10 -4 -58 -11 -107 -15 -100 -9
-262 14 -342 16 -60 38 -117 46 -124 4 -3 10 -16 14 -30 4 -14 19 -39 32 -57
14 -18 22 -37 18 -43 -3 -5 2 -10 11 -10 10 0 15 -3 11 -6 -7 -7 -8 -5 68 -94
30 -36 55 -69 55 -73 0 -5 4 -6 9 -3 4 3 16 -3 26 -14 10 -11 23 -17 29 -13 6
4 5 -1 -3 -10 -12 -15 -12 -17 3 -11 11 4 26 -3 44 -21 15 -15 39 -32 54 -37
16 -6 26 -14 23 -18 -7 -11 31 -23 44 -15 6 3 14 -3 20 -12 6 -10 11 -15 11
-11 0 3 24 -3 53 -14 127 -48 290 -74 412 -64 44 4 114 7 155 8 49 1 66 4 50
9 -21 6 -22 7 -5 9 45 5 86 18 133 40 20 10 40 16 44 13 5 -2 8 1 8 6 0 6 9
11 20 11 11 0 20 4 20 10 0 5 7 6 17 3 9 -4 14 -2 10 3 -3 6 3 15 14 22 14 9
19 9 19 1 0 -7 9 0 21 15 11 14 24 24 29 21 4 -3 13 2 20 10 7 8 17 12 23 8 5
-3 7 -1 4 4 -4 6 10 23 31 39 20 15 39 32 40 36 7 15 24 8 18 -8 -3 -9 -2 -12
5 -9 6 4 8 14 4 23 -3 8 4 25 16 39 22 22 46 32 35 14 -7 -11 21 -8 31 4 4 4
3 5 -3 2 -7 -4 -17 -1 -23 7 -9 10 -3 22 24 50 19 21 32 43 28 49 -4 7 0 8 11
4 10 -4 15 -3 11 4 -4 5 1 21 10 35 9 13 13 30 9 36 -4 7 -3 8 4 4 7 -4 13 7
18 29 3 20 13 42 21 50 7 8 15 28 16 44 1 16 6 27 11 24 4 -3 5 3 2 14 -4 11
0 36 8 55 11 25 15 72 14 169 -1 74 -4 139 -8 144 -6 9 -18 59 -24 107 -1 10
-5 20 -8 24 -4 3 -4 12 -1 20 3 8 0 14 -6 14 -6 0 -11 12 -11 26 0 14 -9 37
-19 51 -11 13 -17 31 -14 39 3 8 0 14 -6 14 -6 0 -11 7 -11 15 0 8 -9 24 -21
36 -11 11 -18 27 -15 34 2 7 -2 19 -10 26 -8 7 -13 18 -10 26 4 9 1 11 -6 7
-8 -5 -9 -2 -5 10 4 9 3 15 -2 12 -11 -7 -23 22 -16 35 4 5 -2 6 -11 2 -13 -5
-16 -3 -11 10 3 9 2 17 -4 17 -6 0 -7 5 -4 10 3 6 2 10 -3 10 -10 0 -49 57
-64 93 -4 9 -12 17 -18 17 -5 0 -10 5 -10 11 0 6 -9 24 -21 40 -11 16 -17 34
-13 41 5 9 2 8 -9 -1 -15 -12 -17 -12 -12 2 4 8 1 18 -6 23 -8 5 -10 3 -4 -6
5 -9 4 -11 -4 -6 -6 4 -9 11 -7 14 2 4 -2 18 -11 32 -8 14 -12 17 -9 7 3 -11
2 -15 -4 -12 -6 3 -10 11 -10 16 0 9 -43 67 -115 156 -15 18 -23 38 -19 44 4
7 3 9 -3 6 -6 -4 -25 7 -43 23 -19 17 -31 30 -27 30 4 0 -1 8 -10 18 -10 11
-21 17 -25 15 -4 -2 -5 4 -1 13 4 11 2 15 -4 11 -9 -6 -66 47 -71 66 -1 4 -5
7 -9 8 -15 1 -55 44 -64 68 -5 13 -12 21 -16 17 -9 -8 -44 25 -37 35 3 5 0 9
-6 9 -7 0 -9 7 -6 16 5 14 4 15 -8 5 -11 -9 -17 -8 -30 4 -9 9 -14 21 -11 26
4 5 -2 6 -11 2 -11 -4 -15 -3 -10 5 3 6 -3 13 -14 17 -30 10 -82 77 -67 88 7
5 4 6 -10 2 -14 -4 -28 1 -40 13 -10 10 -26 22 -36 25 -10 4 -15 12 -12 17 4
6 1 9 -7 8 -7 -2 -12 2 -11 9 2 7 -3 10 -11 7 -7 -3 -16 2 -19 10 -4 9 -13 16
-21 16 -8 0 -18 9 -21 20 -4 11 -11 18 -16 15 -5 -4 -9 -2 -9 4 0 5 -9 13 -20
16 -11 4 -17 11 -14 17 5 8 1 9 -10 5 -10 -4 -15 -3 -11 3 3 6 -1 10 -11 10
-14 0 -15 2 -3 17 10 12 10 15 1 9 -7 -4 -19 0 -28 9 -9 9 -23 14 -30 11 -7
-3 -20 4 -27 14 -8 11 -17 17 -20 13 -4 -3 -7 -4 -7 -1 0 3 8 12 17 19 14 12
16 12 8 0 -5 -10 -4 -12 3 -7 7 4 12 14 12 21 0 8 9 19 20 25 11 6 18 15 15
19 -3 5 4 20 15 32 11 13 19 20 20 15 0 -5 -8 -19 -17 -30 l-17 -21 22 21 c13
11 24 30 25 41 1 18 4 19 27 10 14 -6 39 -23 56 -39z m38 -570 c12 -21 2 -43
-28 -64 -24 -15 -28 -15 -52 0 -20 14 -25 24 -22 49 6 58 68 68 102 15z"/>
<path d="M3126 4248 c3 -5 10 -6 15 -3 13 9 11 12 -6 12 -8 0 -12 -4 -9 -9z"/>
<path d="M3096 4142 c-3 -5 1 -9 9 -9 8 0 12 4 9 9 -3 4 -7 8 -9 8 -2 0 -6 -4
-9 -8z"/>
<path d="M3295 4110 c-4 -6 -1 -9 7 -8 7 2 12 -3 10 -10 -1 -8 2 -11 8 -7 8 5
7 11 -1 21 -14 17 -16 17 -24 4z"/>
<path d="M3321 3894 c13 -17 26 -30 28 -27 3 2 -8 16 -24 31 l-28 27 24 -31z"/>
<path d="M2625 3889 c-4 -6 -5 -12 -2 -15 2 -3 7 2 10 11 7 17 1 20 -8 4z"/>
<path d="M2560 3757 c0 -2 6 -10 14 -16 11 -9 16 -9 22 1 4 7 4 10 -1 6 -4 -4
-14 -3 -22 3 -7 6 -13 9 -13 6z"/>
<path d="M2565 3709 c-4 -6 -5 -12 -2 -15 2 -3 7 2 10 11 7 17 1 20 -8 4z"/>
<path d="M3655 3690 c-3 -5 -1 -10 4 -10 6 0 11 5 11 10 0 6 -2 10 -4 10 -3 0
-8 -4 -11 -10z"/>
<path d="M2336 3432 c-3 -5 1 -9 9 -9 8 0 12 4 9 9 -3 4 -7 8 -9 8 -2 0 -6 -4
-9 -8z"/>
<path d="M3865 3100 c3 -5 8 -10 11 -10 2 0 4 5 4 10 0 6 -5 10 -11 10 -5 0
-7 -4 -4 -10z"/>
<path d="M3976 2317 c3 -10 9 -15 12 -12 3 3 0 11 -7 18 -10 9 -11 8 -5 -6z"/>
<path d="M2056 2082 c-3 -5 1 -9 9 -9 8 0 12 4 9 9 -3 4 -7 8 -9 8 -2 0 -6 -4
-9 -8z"/>
<path d="M3820 2045 c-7 -9 -8 -15 -2 -15 5 0 12 7 16 15 3 8 4 15 2 15 -2 0
-9 -7 -16 -15z"/>
<path d="M3779 1817 c6 -8 7 -18 3 -22 -4 -5 -1 -5 6 -1 10 6 10 11 1 22 -6 8
-14 14 -16 14 -3 0 0 -6 6 -13z"/>
<path d="M2290 1790 c-9 -6 -10 -10 -3 -10 6 0 15 5 18 10 8 12 4 12 -15 0z"/>
<path d="M3716 1752 c-3 -5 1 -9 9 -9 8 0 12 4 9 9 -3 4 -7 8 -9 8 -2 0 -6 -4
-9 -8z"/>
<path d="M3596 1668 c3 -5 10 -6 15 -3 13 9 11 12 -6 12 -8 0 -12 -4 -9 -9z"/>
<path d="M2498 1643 c7 -3 16 -2 19 1 4 3 -2 6 -13 5 -11 0 -14 -3 -6 -6z"/>
<path d="M2710 1570 c-9 -6 -10 -10 -3 -10 6 0 15 5 18 10 8 12 4 12 -15 0z"/>
<path d="M2405 4380 c-3 -6 1 -7 9 -4 18 7 21 14 7 14 -6 0 -13 -4 -16 -10z"/>
<path d="M2586 4103 c-6 -14 -5 -15 5 -6 7 7 10 15 7 18 -3 3 -9 -2 -12 -12z"/>
<path d="M2942 3864 c-37 -19 -62 -59 -62 -99 0 -19 -29 -60 -108 -148 -347
-393 -512 -719 -512 -1010 0 -132 17 -212 70 -322 226 -470 907 -571 1283
-189 211 214 257 526 123 843 -64 151 -181 334 -325 504 -41 49 -71 94 -71
107 0 12 -15 37 -34 56 -26 26 -42 34 -70 34 -73 0 -126 -51 -126 -121 0 -26
-15 -47 -87 -123 -421 -442 -523 -800 -294 -1035 160 -164 444 -161 602 6 70
74 102 148 107 248 9 179 -81 372 -278 595 -30 34 -55 66 -55 71 0 5 24 36 53
69 79 89 86 86 207 -80 266 -366 326 -659 185 -905 -53 -92 -157 -183 -265
-230 -338 -150 -741 32 -830 375 -21 78 -16 232 10 325 49 179 183 413 369
645 107 133 146 170 177 170 18 0 41 11 61 29 29 26 33 35 33 80 0 43 -5 55
-30 81 -38 38 -88 47 -133 24z m22 -25 c9 14 66 14 66 0 0 -5 4 -8 9 -5 4 3
16 -3 25 -13 19 -21 31 -85 14 -75 -7 5 -9 2 -6 -7 7 -18 -17 -53 -30 -45 -6
3 -12 1 -14 -5 -2 -6 -21 -14 -42 -18 -22 -3 -39 -10 -38 -16 1 -17 -20 -35
-31 -28 -6 4 -8 0 -4 -11 4 -9 3 -14 -2 -11 -5 3 -12 -3 -15 -12 -9 -27 -72
-93 -81 -85 -5 4 -5 2 -2 -4 4 -6 -2 -19 -13 -29 -11 -10 -20 -24 -20 -32 0
-7 -6 -13 -13 -13 -6 0 -23 -20 -36 -45 -22 -42 -51 -61 -51 -33 0 6 -2 9 -5
6 -10 -10 7 -38 19 -31 13 8 13 9 -57 -83 -26 -33 -47 -64 -47 -68 0 -4 -9
-20 -19 -34 -10 -15 -20 -31 -21 -37 -1 -5 -6 -9 -11 -8 -4 2 -6 -4 -3 -11 7
-18 -14 -58 -26 -51 -6 3 -7 0 -4 -8 3 -8 -4 -32 -15 -53 -12 -21 -21 -46 -21
-56 0 -9 -4 -20 -10 -23 -5 -3 -10 -18 -10 -33 0 -15 -7 -40 -16 -57 -12 -23
-16 -57 -14 -150 2 -152 3 -174 13 -168 4 2 7 -5 7 -16 0 -12 5 -21 11 -21 6
0 9 -7 5 -15 -3 -8 -1 -15 4 -15 6 0 9 -3 8 -7 -4 -17 14 -53 23 -47 6 3 9 0
8 -7 -3 -20 12 -79 21 -84 5 -3 6 5 2 17 -5 21 -4 22 11 9 9 -7 17 -22 17 -32
0 -11 3 -18 8 -17 11 3 52 -25 52 -36 0 -5 -8 -2 -18 7 -16 15 -18 15 -18 -3
0 -10 4 -16 9 -13 4 2 15 -1 24 -9 12 -9 15 -9 9 0 -10 17 9 15 24 -3 6 -8 8
-20 4 -26 -4 -8 -3 -9 5 -5 6 4 26 -2 45 -13 18 -11 36 -17 40 -13 4 4 6 0 4
-8 -2 -9 5 -15 17 -16 11 0 47 -11 80 -23 74 -29 231 -39 320 -21 33 7 67 13
75 15 32 6 80 27 80 36 0 5 8 9 18 9 9 0 29 10 42 23 25 21 42 29 67 30 7 0
10 4 7 9 -3 5 12 25 33 46 22 20 48 49 58 65 9 15 25 26 34 25 12 -2 15 4 13
30 -2 17 1 32 5 32 5 0 15 20 22 45 7 25 17 45 22 45 5 0 6 7 3 15 -4 8 -2 15
3 15 14 0 17 219 2 236 -9 11 -9 18 -1 26 15 15 16 32 2 23 -5 -3 -10 -5 -10
-3 0 2 -4 18 -9 36 -6 20 -6 30 0 27 15 -10 10 12 -6 25 -8 7 -15 18 -15 24 0
7 -20 51 -45 100 -25 48 -42 92 -39 98 5 7 2 8 -6 3 -10 -6 -12 -4 -7 9 4 9 3
15 -2 12 -5 -3 -11 4 -14 15 -3 12 -10 18 -15 15 -10 -6 -27 21 -24 37 1 4 -2
7 -7 7 -5 0 -7 10 -4 23 3 16 2 18 -5 8 -11 -15 -21 -4 -17 22 2 9 0 15 -4 12
-9 -5 -61 50 -61 65 0 5 -13 23 -30 38 -16 16 -30 36 -30 45 0 9 -5 19 -12 23
-7 4 -8 3 -4 -4 11 -18 -10 -14 -28 4 -21 21 -20 27 4 21 11 -3 18 -1 14 4 -3
5 3 9 12 9 10 0 14 3 11 7 -4 3 -2 12 4 19 10 13 2 84 -10 82 -13 -2 -71 24
-71 33 0 13 27 11 59 -5 33 -18 59 -46 42 -46 -8 0 -9 -5 -1 -19 5 -11 7 -28
4 -38 -5 -14 -4 -15 4 -4 9 13 14 11 31 -10 11 -13 18 -30 16 -37 -3 -7 0 -10
5 -7 6 3 10 1 10 -5 0 -6 5 -8 12 -4 8 5 9 2 5 -10 -4 -10 -3 -15 3 -11 5 3
15 -5 21 -19 7 -14 16 -23 22 -19 6 3 7 1 3 -5 -3 -6 -1 -14 5 -17 5 -4 8 -13
5 -21 -3 -9 0 -11 11 -7 12 5 15 2 10 -10 -4 -10 -2 -16 6 -14 6 1 19 -13 28
-30 9 -18 20 -29 24 -25 4 4 3 -3 -4 -15 -7 -15 -8 -24 -1 -28 6 -4 10 -3 9 2
-4 26 4 21 32 -16 17 -24 28 -49 25 -57 -3 -9 -1 -12 5 -9 6 4 13 -2 16 -14 3
-11 9 -18 14 -15 5 3 6 -3 2 -12 -5 -13 -3 -15 7 -9 9 5 11 4 6 -3 -4 -7 2
-21 13 -33 11 -12 23 -35 26 -50 4 -18 11 -27 18 -22 7 3 9 2 4 -2 -4 -5 0
-19 9 -32 12 -19 13 -27 3 -39 -9 -12 -9 -13 3 -9 11 5 19 -10 32 -59 10 -36
18 -81 18 -101 0 -19 4 -35 8 -35 5 0 7 -53 5 -118 -3 -88 -10 -137 -26 -188
-22 -69 -72 -163 -93 -176 -6 -4 -8 -8 -3 -8 14 0 -25 -50 -39 -50 -8 0 -13
-3 -13 -7 3 -17 -1 -36 -7 -31 -3 3 -16 -5 -30 -19 -13 -13 -29 -21 -36 -17
-6 4 -8 3 -4 -4 3 -6 -6 -15 -21 -21 -26 -10 -26 -11 -3 -7 l25 5 -25 -19
c-14 -11 -30 -20 -35 -20 -6 0 -26 -11 -45 -23 -19 -13 -41 -22 -49 -19 -8 3
-11 0 -7 -7 4 -7 -1 -11 -13 -11 -11 0 -22 -4 -25 -9 -5 -8 -39 -18 -91 -27
-11 -1 -31 -5 -45 -7 -14 -3 -25 -5 -25 -7 0 -1 -18 -4 -40 -5 -22 -2 -65 -6
-95 -9 -30 -3 -80 -1 -110 4 -124 23 -132 25 -207 62 -38 18 -71 31 -75 30 -4
-1 -17 11 -29 26 -13 15 -19 19 -16 9 5 -14 -1 -12 -28 9 -19 14 -32 31 -28
37 3 6 1 7 -5 3 -12 -7 -92 59 -92 76 0 5 5 6 12 2 7 -4 8 -3 4 4 -4 6 -13 9
-20 6 -7 -3 -16 3 -20 13 -3 10 -19 36 -35 58 -16 22 -27 43 -25 47 2 4 -1 10
-7 13 -5 4 -8 13 -5 21 3 8 0 13 -5 11 -14 -3 -41 71 -32 86 3 5 1 7 -5 3 -16
-10 -30 83 -31 209 -1 95 3 124 30 217 17 59 35 105 39 103 5 -3 6 5 2 17 -3
13 -1 19 5 15 6 -4 14 0 17 9 3 8 2 12 -3 9 -5 -3 7 27 28 67 20 40 43 73 51
73 8 0 15 9 16 20 2 47 5 55 20 55 8 0 12 5 9 10 -3 6 -1 10 5 10 6 0 8 5 5
10 -3 6 -2 10 3 10 6 0 13 12 16 26 5 17 12 24 21 20 8 -3 12 0 9 8 -3 7 4 21
16 31 11 10 20 24 20 31 0 7 3 14 8 16 7 3 13 11 77 105 20 28 43 57 53 64 15
12 15 12 0 -7 -10 -11 -18 -24 -18 -29 0 -4 9 4 20 18 11 14 20 30 20 37 0 6
5 8 10 5 9 -6 14 7 11 30 -1 6 6 1 15 -10 10 -12 15 -14 12 -5 -6 19 26 76 41
73 6 -2 11 4 11 12 0 8 5 15 11 15 5 0 7 5 3 12 -4 6 -3 8 3 5 13 -8 42 59 38
90 -1 12 1 20 5 18 4 -2 13 8 19 22 9 20 15 23 20 14 6 -9 11 -10 15 -2z m211
-264 c-16 -18 -21 -35 -19 -62 1 -24 7 -37 14 -35 7 2 10 -3 7 -11 -4 -10 0
-13 13 -10 22 6 36 -15 21 -30 -9 -9 -11 -7 -6 8 3 11 -1 7 -9 -10 -8 -16 -16
-28 -19 -25 -3 3 -15 -4 -28 -15 -22 -19 -23 -19 -9 -1 11 15 12 18 1 12 -10
-7 -12 -3 -7 15 5 18 5 20 -3 8 -10 -16 -10 -37 2 -55 4 -7 -1 -18 -11 -25
-16 -13 -16 -13 -2 6 14 19 14 19 -3 6 -10 -8 -15 -21 -12 -29 4 -10 0 -12
-10 -8 -9 3 -14 2 -10 -3 8 -14 -6 -42 -18 -34 -6 3 -7 1 -3 -6 4 -6 12 -8 18
-5 8 5 9 1 5 -10 -4 -9 -3 -15 2 -12 5 3 15 -2 22 -11 10 -12 10 -14 2 -9 -7
4 -13 5 -13 2 0 -3 12 -13 28 -21 15 -9 19 -14 10 -11 -23 7 -23 3 4 -20 12
-10 18 -13 13 -5 -5 10 -4 12 3 7 7 -4 12 -14 12 -22 0 -8 5 -12 10 -9 6 3 10
3 10 -2 0 -4 11 -21 25 -37 14 -16 25 -33 25 -38 0 -5 6 -6 13 -2 6 4 9 4 5
-1 -4 -4 4 -21 18 -38 14 -16 23 -36 20 -44 -3 -8 -1 -11 4 -8 6 4 10 -6 10
-22 0 -21 3 -24 10 -13 7 11 11 8 19 -15 6 -17 16 -38 21 -47 6 -10 10 -25 10
-35 0 -9 7 -24 15 -33 21 -24 40 -176 23 -186 -4 -3 -8 -13 -7 -22 0 -14 2
-14 10 3 7 16 8 14 4 -10 -3 -16 -6 -35 -7 -42 -1 -7 -5 -10 -10 -7 -4 3 -8 3
-8 0 0 -2 -3 -13 -6 -23 -5 -15 -4 -15 5 -3 6 9 11 10 11 3 0 -6 -6 -18 -13
-25 -8 -7 -12 -19 -9 -26 2 -6 -2 -12 -9 -12 -7 0 -9 -3 -6 -6 9 -9 -33 -65
-43 -59 -5 3 -12 0 -16 -6 -5 -8 -2 -10 7 -5 8 4 -2 -7 -21 -24 -19 -17 -45
-33 -57 -36 -12 -3 -24 -12 -27 -19 -3 -8 -13 -11 -27 -8 -17 5 -20 3 -14 -7
6 -9 4 -12 -6 -8 -8 3 -26 0 -40 -8 -13 -7 -31 -13 -39 -13 -10 0 -8 4 5 10
15 7 12 7 -10 2 -57 -15 -144 -5 -200 22 -30 14 -56 25 -59 25 -3 0 -15 9 -27
21 -20 20 -20 21 -3 42 l18 22 -23 -21 -23 -22 -30 34 c-41 46 -79 125 -72
149 4 15 3 16 -4 6 -13 -18 -21 118 -11 179 15 95 20 113 34 134 8 11 15 28
15 38 0 10 5 18 10 18 6 0 10 6 10 13 0 7 6 21 13 31 11 15 17 16 35 7 15 -8
23 -8 28 1 4 6 3 8 -2 5 -6 -3 -16 -2 -24 3 -11 7 -11 11 -1 24 7 8 14 26 15
39 2 13 16 42 32 63 15 22 29 41 31 43 1 2 11 -2 20 -10 16 -13 17 -12 4 4
-12 15 -11 20 8 41 11 12 19 25 15 28 -3 3 0 9 7 14 8 5 10 3 4 -6 -5 -9 -4
-11 3 -6 7 4 12 14 12 21 0 17 34 38 44 27 4 -3 4 1 0 11 -3 10 -1 17 6 17 6
0 9 4 6 9 -3 4 3 16 14 26 11 10 20 14 20 9 1 -5 9 1 20 14 11 13 25 21 32 17
7 -3 6 0 -3 6 -15 11 -13 16 17 46 19 18 37 33 41 33 3 0 -6 -12 -21 -26 -14
-15 -26 -31 -26 -36 0 -17 59 59 65 85 4 15 11 24 16 21 10 -6 7 25 -4 43 -4
6 0 19 9 27 8 9 12 16 8 16 -3 0 -1 6 6 14 6 8 17 13 25 10 9 -4 7 -12 -10
-29z m85 -15 c21 -21 23 -29 14 -54 -10 -27 -40 -37 -68 -24 -14 6 -26 15 -26
19 0 4 -3 14 -6 22 -6 18 29 57 51 57 8 0 24 -9 35 -20z m-248 -212 c-7 -7
-12 -8 -12 -2 0 6 3 14 7 17 3 4 9 5 12 2 2 -3 -1 -11 -7 -17z m-252 -327 c-5
-11 -15 -23 -22 -27 -7 -5 -8 -2 -3 7 21 37 44 55 25 20z"/>
<path d="M2964 3828 c-3 -5 -9 -6 -14 -3 -5 3 -16 -8 -25 -26 -12 -23 -13 -29
-3 -23 10 6 11 5 1 -7 -9 -11 -8 -18 2 -33 11 -14 11 -24 4 -40 -9 -18 -8 -19
3 -5 13 15 43 15 33 0 -8 -13 45 -4 62 11 9 7 18 11 21 8 3 -3 9 9 14 25 10
37 2 79 -14 69 -8 -5 -9 -2 -5 10 4 10 3 15 -4 11 -5 -4 -15 -2 -22 3 -15 11
-46 12 -53 0z m71 -42 c20 -31 6 -63 -31 -72 -27 -7 -64 18 -64 43 0 54 66 74
95 29z"/>
<path d="M2900 3645 c-7 -9 -11 -17 -9 -20 3 -2 10 5 17 15 14 24 10 26 -8 5z"/>
<path d="M2836 3612 l-19 -27 24 22 c12 12 21 24 18 27 -2 2 -13 -8 -23 -22z"/>
<path d="M2776 3537 c3 -10 9 -15 12 -12 3 3 0 11 -7 18 -10 9 -11 8 -5 -6z"/>
<path d="M3363 3387 c-8 -17 -8 -24 0 -24 7 0 13 11 13 24 2 29 0 29 -13 0z"/>
<path d="M2526 3213 c-6 -14 -5 -15 5 -6 7 7 10 15 7 18 -3 3 -9 -2 -12 -12z"/>
<path d="M2291 2534 c0 -11 3 -14 6 -6 3 7 2 16 -1 19 -3 4 -6 -2 -5 -13z"/>
<path d="M2500 2250 c0 -5 5 -10 11 -10 5 0 7 5 4 10 -3 6 -8 10 -11 10 -2 0
-4 -4 -4 -10z"/>
<path d="M2778 2093 c7 -3 16 -2 19 1 4 3 -2 6 -13 5 -11 0 -14 -3 -6 -6z"/>
<path d="M3140 3450 c6 -11 13 -20 16 -20 2 0 0 9 -6 20 -6 11 -13 20 -16 20
-2 0 0 -9 6 -20z"/>
<path d="M3086 3373 c-6 -14 -5 -15 5 -6 7 7 10 15 7 18 -3 3 -9 -2 -12 -12z"/>
<path d="M3075 3220 c10 -11 20 -20 23 -20 3 0 -3 9 -13 20 -10 11 -20 20 -23
20 -3 0 3 -9 13 -20z"/>
<path d="M2965 3159 c6 -9 -46 -60 -55 -54 -6 3 -7 -1 -4 -9 3 -9 -5 -26 -21
-42 -15 -15 -20 -24 -11 -21 20 8 21 0 2 -19 -8 -7 -16 -10 -19 -6 -2 4 -2 1
0 -6 4 -18 -22 -54 -32 -44 -5 4 -5 2 -2 -5 4 -6 2 -24 -4 -40 -7 -15 -13 -33
-14 -39 -2 -6 -11 -28 -20 -48 -23 -49 -29 -194 -8 -214 8 -8 12 -23 10 -34
-3 -10 -1 -16 4 -12 8 5 13 -9 10 -28 0 -4 7 -4 17 -1 15 6 15 5 3 -11 -8 -9
-10 -16 -5 -15 21 4 26 -2 13 -18 -11 -15 -11 -16 1 -5 18 15 34 16 24 0 -4
-6 -3 -8 4 -5 5 4 32 -4 59 -17 42 -21 164 -45 134 -27 -16 11 34 32 56 24 10
-4 14 -2 10 4 -7 10 27 26 49 24 6 -1 17 7 25 16 11 15 11 16 -1 6 -29 -26
-33 -12 -5 17 16 16 29 39 30 51 1 11 7 24 13 28 14 9 18 142 4 167 -6 12 -9
24 -5 27 3 4 1 12 -4 19 -5 7 -16 35 -23 61 -7 26 -20 53 -30 60 -17 12 -44
54 -45 72 -1 6 -5 9 -10 8 -6 -1 -11 14 -11 33 -1 18 2 31 7 28 5 -3 6 2 3 10
-3 8 -12 17 -20 20 -10 4 -13 2 -7 -6 12 -21 11 -49 -2 -38 -7 5 -15 8 -18 5
-4 -3 -5 -2 -2 2 3 3 -5 17 -17 31 -13 13 -22 27 -20 30 2 4 -2 8 -10 10 -9 2
-8 0 2 -7 8 -6 10 -11 4 -11 -6 0 -17 6 -23 14 -9 11 -9 15 1 19 7 2 1 4 -14
3 -14 0 -25 -4 -23 -7z m61 -66 c66 -71 133 -175 167 -262 26 -66 29 -85 25
-149 -6 -91 -39 -143 -119 -185 -46 -25 -62 -28 -110 -24 -63 5 -102 23 -143
64 -94 93 -71 273 63 496 36 59 66 107 68 107 2 0 24 -21 49 -47z"/>
<path d="M2960 3066 c0 -2 8 -10 18 -17 15 -13 16 -12 3 4 -13 16 -21 21 -21
13z"/>
<path d="M2795 2990 c3 -5 8 -10 11 -10 2 0 4 5 4 10 0 6 -5 10 -11 10 -5 0
-7 -4 -4 -10z"/>
<path d="M3261 2724 c0 -11 3 -14 6 -6 3 7 2 16 -1 19 -3 4 -6 -2 -5 -13z"/>
<path d="M3361 2544 c0 -11 3 -14 6 -6 3 7 2 16 -1 19 -3 4 -6 -2 -5 -13z"/>
<path d="M3359 3683 c-13 -16 -12 -17 4 -4 16 13 21 21 13 21 -2 0 -10 -8 -17
-17z"/>
<path d="M2735 3659 c-4 -6 -5 -12 -2 -15 2 -3 7 2 10 11 7 17 1 20 -8 4z"/>
<path d="M3499 3423 c-13 -16 -12 -17 4 -4 16 13 21 21 13 21 -2 0 -10 -8 -17
-17z"/>
<path d="M2775 3309 c-4 -6 -5 -12 -2 -15 2 -3 7 2 10 11 7 17 1 20 -8 4z"/>
<path d="M1985 3199 c-4 -6 -5 -12 -2 -15 2 -3 7 2 10 11 7 17 1 20 -8 4z"/>
<path d="M2170 1786 c0 -2 8 -10 18 -17 15 -13 16 -12 3 4 -13 16 -21 21 -21
13z"/>
<path d="M3840 1736 c0 -2 8 -10 18 -17 15 -13 16 -12 3 4 -13 16 -21 21 -21
13z"/>
<path d="M1933 1553 c4 -3 1 -13 -6 -22 -10 -14 -10 -14 4 -4 9 7 20 9 25 5 4
-4 2 1 -5 11 -7 9 -16 17 -19 17 -3 0 -2 -3 1 -7z"/>
<path d="M2260 1300 c-9 -6 -10 -10 -3 -10 6 0 15 5 18 10 8 12 4 12 -15 0z"/>
</g>
</svg>
